<?xml version="1.0" ?><svg id="fish" style="enable-background:new 0 0 32 32;" version="1.1" viewBox="0 0 32 32" xml:space="preserve" xmlns="http://www.w3.org/2000/svg" xmlns:xlink="http://www.w3.org/1999/xlink"><g><path d="M30,21.6c-0.1-0.3-0.4-0.6-0.7-0.7l-5.4-1.5c0-0.6-0.1-1.3-0.2-1.9c-0.3-0.9-0.6-1.8-1-2.6c0.6-0.9,1-2,1-3.1   c0-3-2.4-5.4-5.4-5.4c-0.7,0-1.4,0.1-2,0.4C12.3,3.6,7.6,2.1,3.4,2.6C3,2.6,2.6,3,2.6,3.4c-0.5,4.2,1.1,8.9,4.2,12.8   c-0.3,0.6-0.4,1.3-0.4,2c0,3,2.4,5.4,5.4,5.4c1.1,0,2.2-0.4,3.1-1c0.9,0.4,1.7,0.7,2.6,1c0.6,0.2,1.2,0.3,1.8,0.3   c0.1,0,0.1,0,0.2,0l1.5,5.4c0.1,0.3,0.4,0.6,0.7,0.7c0.1,0,0.2,0,0.3,0c0.3,0,0.5-0.1,0.7-0.3l7.1-7.1C30,22.3,30.1,22,30,21.6z    M18.3,8.4c1.9,0,3.4,1.5,3.4,3.4c0,0.3-0.1,0.6-0.1,0.9c-0.9-1.5-2-2.9-3.3-4.2c0,0-0.1-0.1-0.1-0.1C18.2,8.4,18.2,8.4,18.3,8.4z    M12.2,6.5c-1.3,2.4-3.3,4.4-5.7,5.7C5.1,9.7,4.4,7,4.5,4.5C7,4.4,9.7,5.1,12.2,6.5z M11.7,21.6c-1.9,0-3.4-1.5-3.4-3.4   c0-0.1,0-0.1,0-0.2c0,0,0.1,0.1,0.1,0.1c1.3,1.3,2.7,2.4,4.2,3.3C12.4,21.6,12.1,21.6,11.7,21.6z M18,21.7c-1-0.3-1.9-0.7-2.9-1.1   c0,0,0,0,0,0c-1.9-0.9-3.6-2.2-5.2-3.8c-0.9-0.9-1.7-1.9-2.4-2.8c2.7-1.5,4.9-3.7,6.4-6.4c1,0.7,2,1.5,2.9,2.4   c1.6,1.6,2.8,3.3,3.8,5.2c0,0,0,0,0,0C21,16,21.4,17,21.7,18c0.4,1.3,0.2,2.4-0.5,3.1S19.3,22,18,21.7z M22.4,27.1l-1-3.7   c0.4-0.2,0.9-0.5,1.2-0.8c0.4-0.4,0.6-0.8,0.8-1.2l3.7,1L22.4,27.1z"/><path d="M8.3,7.7C8.5,7.9,8.7,8,9,8c0.3,0,0.5-0.1,0.7-0.3C9.9,7.5,10,7.3,10,7c0-0.3-0.1-0.5-0.3-0.7c-0.4-0.4-1-0.4-1.4,0   C8.1,6.5,8,6.7,8,7C8,7.3,8.1,7.5,8.3,7.7z"/></g></svg>